<mxfile host="app.diagrams.net" agent="Mozilla/5.0 (Windows NT 10.0; Win64; x64) AppleWebKit/537.36 (KHTML, like Gecko) Chrome/128.0.0.0 YaBrowser/24.10.0.0 Safari/537.36" version="25.0.1">
  <diagram name="Страница — 1" id="lsg8XOqcqa6uUN021HcP">
    <mxGraphModel dx="1253" dy="719" grid="1" gridSize="10" guides="1" tooltips="1" connect="1" arrows="1" fold="1" page="1" pageScale="1" pageWidth="827" pageHeight="1169" math="0" shadow="0">
      <root>
        <mxCell id="0" />
        <mxCell id="1" parent="0" />
        <mxCell id="CD0ake1jvWNNEk4w8cjB-1" value="" style="shape=umlLifeline;perimeter=lifelinePerimeter;whiteSpace=wrap;html=1;container=1;dropTarget=0;collapsible=0;recursiveResize=0;outlineConnect=0;portConstraint=eastwest;newEdgeStyle={&quot;curved&quot;:0,&quot;rounded&quot;:0};participant=umlActor;" parent="1" vertex="1">
          <mxGeometry x="50" y="60" width="20" height="700" as="geometry" />
        </mxCell>
        <mxCell id="CD0ake1jvWNNEk4w8cjB-2" value="" style="html=1;points=[[0,0,0,0,5],[0,1,0,0,-5],[1,0,0,0,5],[1,1,0,0,-5]];perimeter=orthogonalPerimeter;outlineConnect=0;targetShapes=umlLifeline;portConstraint=eastwest;newEdgeStyle={&quot;curved&quot;:0,&quot;rounded&quot;:0};" parent="CD0ake1jvWNNEk4w8cjB-1" vertex="1">
          <mxGeometry x="5" y="70" width="10" height="60" as="geometry" />
        </mxCell>
        <mxCell id="CD0ake1jvWNNEk4w8cjB-3" value="" style="html=1;points=[[0,0,0,0,5],[0,1,0,0,-5],[1,0,0,0,5],[1,1,0,0,-5]];perimeter=orthogonalPerimeter;outlineConnect=0;targetShapes=umlLifeline;portConstraint=eastwest;newEdgeStyle={&quot;curved&quot;:0,&quot;rounded&quot;:0};" parent="CD0ake1jvWNNEk4w8cjB-1" vertex="1">
          <mxGeometry x="5" y="170" width="10" height="70" as="geometry" />
        </mxCell>
        <mxCell id="CD0ake1jvWNNEk4w8cjB-4" value="" style="html=1;points=[[0,0,0,0,5],[0,1,0,0,-5],[1,0,0,0,5],[1,1,0,0,-5]];perimeter=orthogonalPerimeter;outlineConnect=0;targetShapes=umlLifeline;portConstraint=eastwest;newEdgeStyle={&quot;curved&quot;:0,&quot;rounded&quot;:0};" parent="CD0ake1jvWNNEk4w8cjB-1" vertex="1">
          <mxGeometry x="5" y="270" width="10" height="60" as="geometry" />
        </mxCell>
        <mxCell id="CD0ake1jvWNNEk4w8cjB-5" value="Система" style="shape=umlLifeline;perimeter=lifelinePerimeter;whiteSpace=wrap;html=1;container=1;dropTarget=0;collapsible=0;recursiveResize=0;outlineConnect=0;portConstraint=eastwest;newEdgeStyle={&quot;curved&quot;:0,&quot;rounded&quot;:0};" parent="1" vertex="1">
          <mxGeometry x="220" y="60" width="100" height="700" as="geometry" />
        </mxCell>
        <mxCell id="CD0ake1jvWNNEk4w8cjB-6" value="" style="html=1;points=[[0,0,0,0,5],[0,1,0,0,-5],[1,0,0,0,5],[1,1,0,0,-5]];perimeter=orthogonalPerimeter;outlineConnect=0;targetShapes=umlLifeline;portConstraint=eastwest;newEdgeStyle={&quot;curved&quot;:0,&quot;rounded&quot;:0};" parent="CD0ake1jvWNNEk4w8cjB-5" vertex="1">
          <mxGeometry x="45" y="70" width="10" height="60" as="geometry" />
        </mxCell>
        <mxCell id="CD0ake1jvWNNEk4w8cjB-7" value="" style="html=1;points=[[0,0,0,0,5],[0,1,0,0,-5],[1,0,0,0,5],[1,1,0,0,-5]];perimeter=orthogonalPerimeter;outlineConnect=0;targetShapes=umlLifeline;portConstraint=eastwest;newEdgeStyle={&quot;curved&quot;:0,&quot;rounded&quot;:0};" parent="CD0ake1jvWNNEk4w8cjB-5" vertex="1">
          <mxGeometry x="45" y="270" width="10" height="60" as="geometry" />
        </mxCell>
        <mxCell id="CD0ake1jvWNNEk4w8cjB-8" value="Склад" style="shape=umlLifeline;perimeter=lifelinePerimeter;whiteSpace=wrap;html=1;container=1;dropTarget=0;collapsible=0;recursiveResize=0;outlineConnect=0;portConstraint=eastwest;newEdgeStyle={&quot;curved&quot;:0,&quot;rounded&quot;:0};" parent="1" vertex="1">
          <mxGeometry x="420" y="60" width="100" height="700" as="geometry" />
        </mxCell>
        <mxCell id="CD0ake1jvWNNEk4w8cjB-9" value="" style="html=1;points=[[0,0,0,0,5],[0,1,0,0,-5],[1,0,0,0,5],[1,1,0,0,-5]];perimeter=orthogonalPerimeter;outlineConnect=0;targetShapes=umlLifeline;portConstraint=eastwest;newEdgeStyle={&quot;curved&quot;:0,&quot;rounded&quot;:0};" parent="CD0ake1jvWNNEk4w8cjB-8" vertex="1">
          <mxGeometry x="45" y="190" width="10" height="50" as="geometry" />
        </mxCell>
        <mxCell id="CD0ake1jvWNNEk4w8cjB-10" value="Платежный шлюз" style="shape=umlLifeline;perimeter=lifelinePerimeter;whiteSpace=wrap;html=1;container=1;dropTarget=0;collapsible=0;recursiveResize=0;outlineConnect=0;portConstraint=eastwest;newEdgeStyle={&quot;curved&quot;:0,&quot;rounded&quot;:0};" parent="1" vertex="1">
          <mxGeometry x="670" y="60" width="100" height="300" as="geometry" />
        </mxCell>
        <mxCell id="CD0ake1jvWNNEk4w8cjB-11" value="Входит систему" style="html=1;verticalAlign=bottom;endArrow=block;curved=0;rounded=0;" parent="1" edge="1">
          <mxGeometry width="80" relative="1" as="geometry">
            <mxPoint x="60.5" y="140" as="sourcePoint" />
            <mxPoint x="270" y="140" as="targetPoint" />
          </mxGeometry>
        </mxCell>
        <mxCell id="CD0ake1jvWNNEk4w8cjB-12" value="Авторизация пользователя&amp;nbsp;" style="html=1;verticalAlign=bottom;endArrow=open;dashed=1;endSize=8;curved=0;rounded=0;" parent="1" edge="1">
          <mxGeometry relative="1" as="geometry">
            <mxPoint x="270" y="180" as="sourcePoint" />
            <mxPoint x="60" y="180" as="targetPoint" />
            <mxPoint as="offset" />
          </mxGeometry>
        </mxCell>
        <mxCell id="CD0ake1jvWNNEk4w8cjB-13" value="Выбирает товар" style="html=1;verticalAlign=bottom;endArrow=block;curved=0;rounded=0;" parent="1" target="CD0ake1jvWNNEk4w8cjB-5" edge="1">
          <mxGeometry width="80" relative="1" as="geometry">
            <mxPoint x="60" y="240" as="sourcePoint" />
            <mxPoint x="140" y="240" as="targetPoint" />
          </mxGeometry>
        </mxCell>
        <mxCell id="CD0ake1jvWNNEk4w8cjB-14" value="Проверка наличие товара" style="html=1;verticalAlign=bottom;endArrow=block;curved=0;rounded=0;" parent="1" target="CD0ake1jvWNNEk4w8cjB-8" edge="1">
          <mxGeometry width="80" relative="1" as="geometry">
            <mxPoint x="270" y="260" as="sourcePoint" />
            <mxPoint x="350" y="260" as="targetPoint" />
          </mxGeometry>
        </mxCell>
        <mxCell id="CD0ake1jvWNNEk4w8cjB-15" value="товар в наличии" style="html=1;verticalAlign=bottom;endArrow=open;dashed=1;endSize=8;curved=0;rounded=0;" parent="1" target="CD0ake1jvWNNEk4w8cjB-1" edge="1">
          <mxGeometry relative="1" as="geometry">
            <mxPoint x="470" y="290" as="sourcePoint" />
            <mxPoint x="390" y="290" as="targetPoint" />
          </mxGeometry>
        </mxCell>
        <mxCell id="CD0ake1jvWNNEk4w8cjB-16" value="Добавление в корзин" style="html=1;verticalAlign=bottom;endArrow=block;curved=0;rounded=0;" parent="1" target="CD0ake1jvWNNEk4w8cjB-5" edge="1">
          <mxGeometry width="80" relative="1" as="geometry">
            <mxPoint x="60" y="340" as="sourcePoint" />
            <mxPoint x="140" y="340" as="targetPoint" />
          </mxGeometry>
        </mxCell>
        <mxCell id="CD0ake1jvWNNEk4w8cjB-17" value="Добавлении товара" style="html=1;verticalAlign=bottom;endArrow=open;dashed=1;endSize=8;curved=0;rounded=0;" parent="1" source="CD0ake1jvWNNEk4w8cjB-5" edge="1">
          <mxGeometry relative="1" as="geometry">
            <mxPoint x="140" y="380" as="sourcePoint" />
            <mxPoint x="60" y="380" as="targetPoint" />
          </mxGeometry>
        </mxCell>
        <mxCell id="CD0ake1jvWNNEk4w8cjB-18" value="ALT" style="shape=umlFrame;whiteSpace=wrap;html=1;pointerEvents=0;" parent="1" vertex="1">
          <mxGeometry x="30" y="420" width="480" height="280" as="geometry" />
        </mxCell>
        <mxCell id="CD0ake1jvWNNEk4w8cjB-19" value="Потверждение заказа" style="html=1;verticalAlign=bottom;endArrow=block;curved=0;rounded=0;" parent="1" target="CD0ake1jvWNNEk4w8cjB-5" edge="1">
          <mxGeometry width="80" relative="1" as="geometry">
            <mxPoint x="60" y="480" as="sourcePoint" />
            <mxPoint x="140" y="480" as="targetPoint" />
          </mxGeometry>
        </mxCell>
        <mxCell id="CD0ake1jvWNNEk4w8cjB-20" value="Бронирование товара" style="html=1;verticalAlign=bottom;endArrow=block;curved=0;rounded=0;" parent="1" target="CD0ake1jvWNNEk4w8cjB-8" edge="1">
          <mxGeometry width="80" relative="1" as="geometry">
            <mxPoint x="270" y="510" as="sourcePoint" />
            <mxPoint x="350" y="510" as="targetPoint" />
          </mxGeometry>
        </mxCell>
        <mxCell id="CD0ake1jvWNNEk4w8cjB-21" value="Товар забронировани" style="html=1;verticalAlign=bottom;endArrow=open;dashed=1;endSize=8;curved=0;rounded=0;" parent="1" source="CD0ake1jvWNNEk4w8cjB-8" edge="1">
          <mxGeometry relative="1" as="geometry">
            <mxPoint x="350" y="550" as="sourcePoint" />
            <mxPoint x="270" y="550" as="targetPoint" />
          </mxGeometry>
        </mxCell>
        <mxCell id="CD0ake1jvWNNEk4w8cjB-22" value="Заказ&amp;nbsp;подтвержден" style="html=1;verticalAlign=bottom;endArrow=open;dashed=1;endSize=8;curved=0;rounded=0;" parent="1" source="CD0ake1jvWNNEk4w8cjB-5" edge="1">
          <mxGeometry relative="1" as="geometry">
            <mxPoint x="140" y="580" as="sourcePoint" />
            <mxPoint x="60" y="580" as="targetPoint" />
          </mxGeometry>
        </mxCell>
        <mxCell id="CD0ake1jvWNNEk4w8cjB-23" value="" style="line;strokeWidth=1;fillColor=none;align=left;verticalAlign=middle;spacingTop=-1;spacingLeft=3;spacingRight=3;rotatable=0;labelPosition=right;points=[];portConstraint=eastwest;strokeColor=inherit;dashed=1;dashPattern=8 8;" parent="1" vertex="1">
          <mxGeometry x="30" y="600" width="480" height="8" as="geometry" />
        </mxCell>
        <mxCell id="3pjs_HlaBuBWDj2eth5V-1" value="" style="shape=umlLifeline;perimeter=lifelinePerimeter;whiteSpace=wrap;html=1;container=1;dropTarget=0;collapsible=0;recursiveResize=0;outlineConnect=0;portConstraint=eastwest;newEdgeStyle={&quot;curved&quot;:0,&quot;rounded&quot;:0};participant=umlActor;" vertex="1" parent="1">
          <mxGeometry x="50" y="60" width="20" height="1200" as="geometry" />
        </mxCell>
        <mxCell id="3pjs_HlaBuBWDj2eth5V-2" value="" style="html=1;points=[[0,0,0,0,5],[0,1,0,0,-5],[1,0,0,0,5],[1,1,0,0,-5]];perimeter=orthogonalPerimeter;outlineConnect=0;targetShapes=umlLifeline;portConstraint=eastwest;newEdgeStyle={&quot;curved&quot;:0,&quot;rounded&quot;:0};" vertex="1" parent="3pjs_HlaBuBWDj2eth5V-1">
          <mxGeometry x="5" y="70" width="10" height="60" as="geometry" />
        </mxCell>
        <mxCell id="3pjs_HlaBuBWDj2eth5V-3" value="" style="html=1;points=[[0,0,0,0,5],[0,1,0,0,-5],[1,0,0,0,5],[1,1,0,0,-5]];perimeter=orthogonalPerimeter;outlineConnect=0;targetShapes=umlLifeline;portConstraint=eastwest;newEdgeStyle={&quot;curved&quot;:0,&quot;rounded&quot;:0};" vertex="1" parent="3pjs_HlaBuBWDj2eth5V-1">
          <mxGeometry x="5" y="170" width="10" height="70" as="geometry" />
        </mxCell>
        <mxCell id="3pjs_HlaBuBWDj2eth5V-4" value="" style="html=1;points=[[0,0,0,0,5],[0,1,0,0,-5],[1,0,0,0,5],[1,1,0,0,-5]];perimeter=orthogonalPerimeter;outlineConnect=0;targetShapes=umlLifeline;portConstraint=eastwest;newEdgeStyle={&quot;curved&quot;:0,&quot;rounded&quot;:0};" vertex="1" parent="3pjs_HlaBuBWDj2eth5V-1">
          <mxGeometry x="5" y="270" width="10" height="60" as="geometry" />
        </mxCell>
        <mxCell id="3pjs_HlaBuBWDj2eth5V-5" value="" style="html=1;points=[[0,0,0,0,5],[0,1,0,0,-5],[1,0,0,0,5],[1,1,0,0,-5]];perimeter=orthogonalPerimeter;outlineConnect=0;targetShapes=umlLifeline;portConstraint=eastwest;newEdgeStyle={&quot;curved&quot;:0,&quot;rounded&quot;:0};" vertex="1" parent="3pjs_HlaBuBWDj2eth5V-1">
          <mxGeometry x="5" y="830" width="10" height="340" as="geometry" />
        </mxCell>
        <mxCell id="3pjs_HlaBuBWDj2eth5V-6" value="Система" style="shape=umlLifeline;perimeter=lifelinePerimeter;whiteSpace=wrap;html=1;container=1;dropTarget=0;collapsible=0;recursiveResize=0;outlineConnect=0;portConstraint=eastwest;newEdgeStyle={&quot;curved&quot;:0,&quot;rounded&quot;:0};" vertex="1" parent="1">
          <mxGeometry x="220" y="60" width="100" height="1200" as="geometry" />
        </mxCell>
        <mxCell id="3pjs_HlaBuBWDj2eth5V-7" value="" style="html=1;points=[[0,0,0,0,5],[0,1,0,0,-5],[1,0,0,0,5],[1,1,0,0,-5]];perimeter=orthogonalPerimeter;outlineConnect=0;targetShapes=umlLifeline;portConstraint=eastwest;newEdgeStyle={&quot;curved&quot;:0,&quot;rounded&quot;:0};" vertex="1" parent="3pjs_HlaBuBWDj2eth5V-6">
          <mxGeometry x="45" y="70" width="10" height="60" as="geometry" />
        </mxCell>
        <mxCell id="3pjs_HlaBuBWDj2eth5V-8" value="" style="html=1;points=[[0,0,0,0,5],[0,1,0,0,-5],[1,0,0,0,5],[1,1,0,0,-5]];perimeter=orthogonalPerimeter;outlineConnect=0;targetShapes=umlLifeline;portConstraint=eastwest;newEdgeStyle={&quot;curved&quot;:0,&quot;rounded&quot;:0};" vertex="1" parent="3pjs_HlaBuBWDj2eth5V-6">
          <mxGeometry x="45" y="270" width="10" height="60" as="geometry" />
        </mxCell>
        <mxCell id="3pjs_HlaBuBWDj2eth5V-9" value="" style="html=1;points=[[0,0,0,0,5],[0,1,0,0,-5],[1,0,0,0,5],[1,1,0,0,-5]];perimeter=orthogonalPerimeter;outlineConnect=0;targetShapes=umlLifeline;portConstraint=eastwest;newEdgeStyle={&quot;curved&quot;:0,&quot;rounded&quot;:0};" vertex="1" parent="3pjs_HlaBuBWDj2eth5V-6">
          <mxGeometry x="45" y="1120" width="10" height="40" as="geometry" />
        </mxCell>
        <mxCell id="3pjs_HlaBuBWDj2eth5V-10" value="Склад" style="shape=umlLifeline;perimeter=lifelinePerimeter;whiteSpace=wrap;html=1;container=1;dropTarget=0;collapsible=0;recursiveResize=0;outlineConnect=0;portConstraint=eastwest;newEdgeStyle={&quot;curved&quot;:0,&quot;rounded&quot;:0};" vertex="1" parent="1">
          <mxGeometry x="420" y="60" width="100" height="730" as="geometry" />
        </mxCell>
        <mxCell id="3pjs_HlaBuBWDj2eth5V-11" value="" style="html=1;points=[[0,0,0,0,5],[0,1,0,0,-5],[1,0,0,0,5],[1,1,0,0,-5]];perimeter=orthogonalPerimeter;outlineConnect=0;targetShapes=umlLifeline;portConstraint=eastwest;newEdgeStyle={&quot;curved&quot;:0,&quot;rounded&quot;:0};" vertex="1" parent="3pjs_HlaBuBWDj2eth5V-10">
          <mxGeometry x="45" y="190" width="10" height="50" as="geometry" />
        </mxCell>
        <mxCell id="3pjs_HlaBuBWDj2eth5V-13" value="Платежный шлюз" style="shape=umlLifeline;perimeter=lifelinePerimeter;whiteSpace=wrap;html=1;container=1;dropTarget=0;collapsible=0;recursiveResize=0;outlineConnect=0;portConstraint=eastwest;newEdgeStyle={&quot;curved&quot;:0,&quot;rounded&quot;:0};size=40;" vertex="1" parent="1">
          <mxGeometry x="540" y="930" width="100" height="330" as="geometry" />
        </mxCell>
        <mxCell id="3pjs_HlaBuBWDj2eth5V-14" value="" style="html=1;points=[[0,0,0,0,5],[0,1,0,0,-5],[1,0,0,0,5],[1,1,0,0,-5]];perimeter=orthogonalPerimeter;outlineConnect=0;targetShapes=umlLifeline;portConstraint=eastwest;newEdgeStyle={&quot;curved&quot;:0,&quot;rounded&quot;:0};" vertex="1" parent="3pjs_HlaBuBWDj2eth5V-13">
          <mxGeometry x="45" y="120" width="10" height="40" as="geometry" />
        </mxCell>
        <mxCell id="3pjs_HlaBuBWDj2eth5V-15" value="валидация&lt;div&gt;платежа&lt;/div&gt;" style="html=1;align=left;spacingLeft=2;endArrow=block;rounded=0;edgeStyle=orthogonalEdgeStyle;curved=0;rounded=0;" edge="1" parent="3pjs_HlaBuBWDj2eth5V-13" target="3pjs_HlaBuBWDj2eth5V-14">
          <mxGeometry relative="1" as="geometry">
            <mxPoint x="50" y="100" as="sourcePoint" />
            <Array as="points">
              <mxPoint x="80" y="130" />
            </Array>
          </mxGeometry>
        </mxCell>
        <mxCell id="3pjs_HlaBuBWDj2eth5V-16" value="" style="html=1;points=[[0,0,0,0,5],[0,1,0,0,-5],[1,0,0,0,5],[1,1,0,0,-5]];perimeter=orthogonalPerimeter;outlineConnect=0;targetShapes=umlLifeline;portConstraint=eastwest;newEdgeStyle={&quot;curved&quot;:0,&quot;rounded&quot;:0};" vertex="1" parent="3pjs_HlaBuBWDj2eth5V-13">
          <mxGeometry x="50" y="210" width="10" height="40" as="geometry" />
        </mxCell>
        <mxCell id="3pjs_HlaBuBWDj2eth5V-17" value="создание&lt;div&gt;оплаты&lt;/div&gt;" style="html=1;align=left;spacingLeft=2;endArrow=block;rounded=0;edgeStyle=orthogonalEdgeStyle;curved=0;rounded=0;" edge="1" parent="3pjs_HlaBuBWDj2eth5V-13" target="3pjs_HlaBuBWDj2eth5V-16">
          <mxGeometry relative="1" as="geometry">
            <mxPoint x="55" y="190" as="sourcePoint" />
            <Array as="points">
              <mxPoint x="85" y="220" />
            </Array>
          </mxGeometry>
        </mxCell>
        <mxCell id="3pjs_HlaBuBWDj2eth5V-18" value="Входит систему" style="html=1;verticalAlign=bottom;endArrow=block;curved=0;rounded=0;" edge="1" parent="1">
          <mxGeometry width="80" relative="1" as="geometry">
            <mxPoint x="60.5" y="140" as="sourcePoint" />
            <mxPoint x="270" y="140" as="targetPoint" />
          </mxGeometry>
        </mxCell>
        <mxCell id="3pjs_HlaBuBWDj2eth5V-19" value="Авторизация пользователя&amp;nbsp;" style="html=1;verticalAlign=bottom;endArrow=open;dashed=1;endSize=8;curved=0;rounded=0;" edge="1" parent="1">
          <mxGeometry relative="1" as="geometry">
            <mxPoint x="270" y="180" as="sourcePoint" />
            <mxPoint x="60" y="180" as="targetPoint" />
            <mxPoint as="offset" />
          </mxGeometry>
        </mxCell>
        <mxCell id="3pjs_HlaBuBWDj2eth5V-20" value="Выбирает товар" style="html=1;verticalAlign=bottom;endArrow=block;curved=0;rounded=0;" edge="1" parent="1" target="3pjs_HlaBuBWDj2eth5V-6">
          <mxGeometry width="80" relative="1" as="geometry">
            <mxPoint x="60" y="240" as="sourcePoint" />
            <mxPoint x="140" y="240" as="targetPoint" />
          </mxGeometry>
        </mxCell>
        <mxCell id="3pjs_HlaBuBWDj2eth5V-21" value="Проверка наличие товара" style="html=1;verticalAlign=bottom;endArrow=block;curved=0;rounded=0;" edge="1" parent="1" target="3pjs_HlaBuBWDj2eth5V-10">
          <mxGeometry width="80" relative="1" as="geometry">
            <mxPoint x="270" y="260" as="sourcePoint" />
            <mxPoint x="350" y="260" as="targetPoint" />
          </mxGeometry>
        </mxCell>
        <mxCell id="3pjs_HlaBuBWDj2eth5V-22" value="товар в наличии" style="html=1;verticalAlign=bottom;endArrow=open;dashed=1;endSize=8;curved=0;rounded=0;" edge="1" parent="1" target="3pjs_HlaBuBWDj2eth5V-1">
          <mxGeometry relative="1" as="geometry">
            <mxPoint x="470" y="290" as="sourcePoint" />
            <mxPoint x="390" y="290" as="targetPoint" />
          </mxGeometry>
        </mxCell>
        <mxCell id="3pjs_HlaBuBWDj2eth5V-23" value="Добавление в корзин" style="html=1;verticalAlign=bottom;endArrow=block;curved=0;rounded=0;" edge="1" parent="1" target="3pjs_HlaBuBWDj2eth5V-6">
          <mxGeometry width="80" relative="1" as="geometry">
            <mxPoint x="60" y="340" as="sourcePoint" />
            <mxPoint x="140" y="340" as="targetPoint" />
          </mxGeometry>
        </mxCell>
        <mxCell id="3pjs_HlaBuBWDj2eth5V-24" value="Добавлении товара" style="html=1;verticalAlign=bottom;endArrow=open;dashed=1;endSize=8;curved=0;rounded=0;" edge="1" parent="1" source="3pjs_HlaBuBWDj2eth5V-6">
          <mxGeometry relative="1" as="geometry">
            <mxPoint x="140" y="380" as="sourcePoint" />
            <mxPoint x="60" y="380" as="targetPoint" />
          </mxGeometry>
        </mxCell>
        <mxCell id="3pjs_HlaBuBWDj2eth5V-25" value="ALT" style="shape=umlFrame;whiteSpace=wrap;html=1;pointerEvents=0;" vertex="1" parent="1">
          <mxGeometry x="30" y="420" width="480" height="300" as="geometry" />
        </mxCell>
        <mxCell id="3pjs_HlaBuBWDj2eth5V-26" value="Потверждение заказа" style="html=1;verticalAlign=bottom;endArrow=block;curved=0;rounded=0;" edge="1" parent="1" target="3pjs_HlaBuBWDj2eth5V-6">
          <mxGeometry width="80" relative="1" as="geometry">
            <mxPoint x="60" y="480" as="sourcePoint" />
            <mxPoint x="140" y="480" as="targetPoint" />
          </mxGeometry>
        </mxCell>
        <mxCell id="3pjs_HlaBuBWDj2eth5V-27" value="Бронирование товара" style="html=1;verticalAlign=bottom;endArrow=block;curved=0;rounded=0;" edge="1" parent="1" target="3pjs_HlaBuBWDj2eth5V-10">
          <mxGeometry width="80" relative="1" as="geometry">
            <mxPoint x="270" y="510" as="sourcePoint" />
            <mxPoint x="350" y="510" as="targetPoint" />
          </mxGeometry>
        </mxCell>
        <mxCell id="3pjs_HlaBuBWDj2eth5V-28" value="Товар забронирован" style="html=1;verticalAlign=bottom;endArrow=open;dashed=1;endSize=8;curved=0;rounded=0;" edge="1" parent="1" source="3pjs_HlaBuBWDj2eth5V-10">
          <mxGeometry relative="1" as="geometry">
            <mxPoint x="350" y="550" as="sourcePoint" />
            <mxPoint x="270" y="550" as="targetPoint" />
          </mxGeometry>
        </mxCell>
        <mxCell id="3pjs_HlaBuBWDj2eth5V-29" value="Заказ&amp;nbsp;подтвержден" style="html=1;verticalAlign=bottom;endArrow=open;dashed=1;endSize=8;curved=0;rounded=0;" edge="1" parent="1" source="3pjs_HlaBuBWDj2eth5V-6">
          <mxGeometry relative="1" as="geometry">
            <mxPoint x="140" y="580" as="sourcePoint" />
            <mxPoint x="60" y="580" as="targetPoint" />
          </mxGeometry>
        </mxCell>
        <mxCell id="3pjs_HlaBuBWDj2eth5V-32" value="Товар не забронирован" style="html=1;verticalAlign=bottom;endArrow=open;dashed=1;endSize=8;curved=0;rounded=0;" edge="1" parent="1">
          <mxGeometry relative="1" as="geometry">
            <mxPoint x="470" y="660" as="sourcePoint" />
            <mxPoint x="270" y="660" as="targetPoint" />
          </mxGeometry>
        </mxCell>
        <mxCell id="3pjs_HlaBuBWDj2eth5V-33" value="Товар не подвержден" style="html=1;verticalAlign=bottom;endArrow=open;dashed=1;endSize=8;curved=0;rounded=0;" edge="1" parent="1" target="3pjs_HlaBuBWDj2eth5V-1">
          <mxGeometry relative="1" as="geometry">
            <mxPoint x="270" y="680" as="sourcePoint" />
            <mxPoint x="190" y="680" as="targetPoint" />
          </mxGeometry>
        </mxCell>
        <mxCell id="3pjs_HlaBuBWDj2eth5V-34" value="Оплата онлайн" style="html=1;verticalAlign=bottom;endArrow=block;curved=0;rounded=0;" edge="1" parent="1">
          <mxGeometry width="80" relative="1" as="geometry">
            <mxPoint x="60" y="760" as="sourcePoint" />
            <mxPoint x="269.5000000000002" y="760" as="targetPoint" />
          </mxGeometry>
        </mxCell>
        <mxCell id="3pjs_HlaBuBWDj2eth5V-35" value="Заполнение формы" style="html=1;verticalAlign=bottom;endArrow=open;dashed=1;endSize=8;curved=0;rounded=0;" edge="1" parent="1">
          <mxGeometry relative="1" as="geometry">
            <mxPoint x="270" y="820" as="sourcePoint" />
            <mxPoint x="59.66666666666663" y="820" as="targetPoint" />
          </mxGeometry>
        </mxCell>
        <mxCell id="3pjs_HlaBuBWDj2eth5V-36" value="отправка формы" style="html=1;verticalAlign=bottom;endArrow=block;curved=0;rounded=0;" edge="1" parent="1" target="3pjs_HlaBuBWDj2eth5V-6">
          <mxGeometry width="80" relative="1" as="geometry">
            <mxPoint x="60" y="900" as="sourcePoint" />
            <mxPoint x="140" y="900" as="targetPoint" />
          </mxGeometry>
        </mxCell>
        <mxCell id="3pjs_HlaBuBWDj2eth5V-37" value="" style="html=1;points=[[0,0,0,0,5],[0,1,0,0,-5],[1,0,0,0,5],[1,1,0,0,-5]];perimeter=orthogonalPerimeter;outlineConnect=0;targetShapes=umlLifeline;portConstraint=eastwest;newEdgeStyle={&quot;curved&quot;:0,&quot;rounded&quot;:0};" vertex="1" parent="1">
          <mxGeometry x="270" y="920" width="10" height="40" as="geometry" />
        </mxCell>
        <mxCell id="3pjs_HlaBuBWDj2eth5V-38" value="проверка&lt;div&gt;валидации данных&lt;/div&gt;" style="html=1;align=left;spacingLeft=2;endArrow=block;rounded=0;edgeStyle=orthogonalEdgeStyle;curved=0;rounded=0;" edge="1" parent="1" target="3pjs_HlaBuBWDj2eth5V-37">
          <mxGeometry relative="1" as="geometry">
            <mxPoint x="275" y="900" as="sourcePoint" />
            <Array as="points">
              <mxPoint x="305" y="930" />
            </Array>
          </mxGeometry>
        </mxCell>
        <mxCell id="3pjs_HlaBuBWDj2eth5V-39" value="оплата" style="html=1;verticalAlign=bottom;endArrow=block;curved=0;rounded=0;entryX=0;entryY=0.067;entryDx=0;entryDy=0;entryPerimeter=0;dashed=1;dashPattern=12 12;" edge="1" parent="1" target="3pjs_HlaBuBWDj2eth5V-13">
          <mxGeometry width="80" relative="1" as="geometry">
            <mxPoint x="280" y="950" as="sourcePoint" />
            <mxPoint x="360" y="950" as="targetPoint" />
          </mxGeometry>
        </mxCell>
        <mxCell id="3pjs_HlaBuBWDj2eth5V-40" value="подверждение оплаты" style="html=1;verticalAlign=bottom;endArrow=open;dashed=1;endSize=8;curved=0;rounded=0;" edge="1" parent="1" target="3pjs_HlaBuBWDj2eth5V-6">
          <mxGeometry relative="1" as="geometry">
            <mxPoint x="590" y="1180" as="sourcePoint" />
            <mxPoint x="510" y="1180" as="targetPoint" />
          </mxGeometry>
        </mxCell>
        <mxCell id="3pjs_HlaBuBWDj2eth5V-41" value="уведомление об оплате" style="html=1;verticalAlign=bottom;endArrow=open;dashed=1;endSize=8;curved=0;rounded=0;" edge="1" parent="1" target="3pjs_HlaBuBWDj2eth5V-1">
          <mxGeometry relative="1" as="geometry">
            <mxPoint x="260" y="1220" as="sourcePoint" />
            <mxPoint x="180" y="1220" as="targetPoint" />
          </mxGeometry>
        </mxCell>
        <mxCell id="3pjs_HlaBuBWDj2eth5V-42" value="отправка push / sms" style="html=1;verticalAlign=bottom;endArrow=open;dashed=1;endSize=8;curved=0;rounded=0;" edge="1" parent="1" target="3pjs_HlaBuBWDj2eth5V-1">
          <mxGeometry relative="1" as="geometry">
            <mxPoint x="590" y="1260" as="sourcePoint" />
            <mxPoint x="510" y="1260" as="targetPoint" />
          </mxGeometry>
        </mxCell>
        <mxCell id="3pjs_HlaBuBWDj2eth5V-12" value="" style="shape=umlDestroy;whiteSpace=wrap;html=1;strokeWidth=3;targetShapes=umlLifeline;" vertex="1" parent="1">
          <mxGeometry x="455" y="780" width="30" height="30" as="geometry" />
        </mxCell>
      </root>
    </mxGraphModel>
  </diagram>
</mxfile>
